<svg width="723" height="692" viewBox="0 0 723 692" fill="none" xmlns="http://www.w3.org/2000/svg">
<path d="M580.812 670.174C580.812 676.443 578.722 681.668 574.543 685.847C570.363 688.982 566.184 691.071 559.914 691.071H100.159C94.9347 691.071 89.7097 688.981 85.5297 685.847C81.3497 681.667 79.2607 676.443 79.2607 670.174V364.018H580.812V670.174Z" fill="#FFD15C"/>
<path d="M575.543 685.846C571.363 688.981 567.184 691.07 560.914 691.07H101.159C95.9353 691.07 90.7103 688.98 86.5303 685.846L331.036 475.822L575.543 685.846Z" fill="#F8B64C"/>
<mask id="mask0_1267_340" style="mask-type:alpha" maskUnits="userSpaceOnUse" x="0" y="0" width="723" height="540">
<path d="M580.812 364.169L509.759 415.369L343.62 534.488C335.261 540.757 323.767 540.757 315.408 534.488L150.314 415.369L79.2607 364.169V513.654L18.5 406.154L0.5 163.999L39 52.4988L269.5 1.00046C269.5 1.00046 437.335 -10.5489 493 65.149L592 120.649L688.5 228.154L722.5 294.154L714.5 406.154L580.812 467.654V364.169Z" fill="#40596B"/>
</mask>
<g mask="url(#mask0_1267_340)">
<path fill-rule="evenodd" clip-rule="evenodd" d="M414.316 146.433C413.477 150.394 410.085 153.475 405.846 153.741C400.748 154.061 396.355 150.188 396.035 145.089C395.955 143.824 396.134 142.602 396.526 141.475L384.135 138.021L366.724 216.917L371.882 226.13L386.491 169.206L386.504 169.155L386.521 169.105C387.099 167.37 388.191 164.82 390.799 163.125C393.436 161.411 397.301 160.771 402.985 162.135C413.937 164.764 527.381 200.632 582.644 218.207C585.452 219.1 589.178 220.703 591.764 223.733C594.438 226.864 595.725 231.318 593.97 237.46L593.968 237.468L593.966 237.475L533.57 440.971L532.73 443.799L530.94 441.454L386.648 252.5L529.411 507.469L616.468 202.77L593.883 196.476C592.95 200.307 589.616 203.256 585.473 203.516C580.375 203.836 575.982 199.963 575.662 194.864C575.589 193.696 575.735 192.565 576.067 191.511L564.029 188.156C563.233 192.174 559.816 195.315 555.535 195.584C550.436 195.904 546.044 192.03 545.723 186.932C545.641 185.623 545.835 184.361 546.255 183.203L534.16 179.832C533.514 184.036 530.015 187.373 525.596 187.651C520.498 187.971 516.105 184.098 515.785 178.999C515.694 177.55 515.942 176.157 516.46 174.899L504.273 171.502C503.792 175.891 500.214 179.43 495.657 179.716C490.559 180.037 486.166 176.163 485.846 171.065C485.746 169.473 486.054 167.951 486.681 166.6L475.27 163.42C474.419 167.365 471.034 170.43 466.807 170.695C461.709 171.015 457.316 167.142 456.996 162.043C456.917 160.79 457.092 159.579 457.476 158.461L445.176 155.033C444.115 158.668 440.871 161.423 436.873 161.674C431.775 161.994 427.382 158.12 427.062 153.022C426.998 151.999 427.102 151.004 427.352 150.065L414.316 146.433ZM374.006 229.923L376.273 233.971L531.533 437.289L591.085 236.636L591.087 236.629C592.594 231.35 591.433 227.965 589.483 225.681C587.444 223.293 584.368 221.904 581.735 221.066C526.363 203.456 413.097 167.647 402.285 165.052C397.086 163.805 394.15 164.525 392.434 165.64C390.708 166.762 389.894 168.486 389.383 170.004L374.006 229.923Z" fill="url(#paint0_linear_1267_340)"/>
<circle cx="549.19" cy="306.058" r="70.7338" transform="rotate(-21.1348 549.19 306.058)" fill="url(#paint1_radial_1267_340)"/>
<path d="M531.613 329.272C529.974 329.906 528.397 330.169 526.881 330.062C525.373 329.952 524.039 329.513 522.88 328.744C521.721 327.975 520.862 326.912 520.302 325.556L525.171 323.674C525.581 324.573 526.255 325.169 527.195 325.463C528.135 325.757 529.1 325.713 530.089 325.331C530.877 325.026 531.506 324.583 531.974 324.002C532.447 323.411 532.733 322.736 532.831 321.979C532.934 321.211 532.827 320.417 532.51 319.598C532.187 318.763 531.726 318.097 531.125 317.601C530.532 317.102 529.858 316.794 529.102 316.677C528.347 316.561 527.569 316.653 526.77 316.953C526.075 317.222 525.454 317.626 524.907 318.166C524.369 318.703 524.013 319.289 523.841 319.924L519.069 320.849L515.353 307.894L529.868 302.283L531.454 306.387L521.078 310.398L522.763 316.583L522.902 316.529C523.092 315.78 523.534 315.05 524.227 314.338C524.92 313.626 525.788 313.068 526.832 312.665C528.262 312.112 529.667 311.955 531.047 312.194C532.428 312.434 533.67 313.015 534.773 313.939C535.873 314.855 536.714 316.076 537.295 317.601C537.921 319.198 538.1 320.764 537.831 322.298C537.567 323.821 536.904 325.197 535.842 326.425C534.785 327.642 533.375 328.591 531.613 329.272ZM553.368 321.089C551.371 321.852 549.465 322.025 547.651 321.606C545.845 321.185 544.198 320.201 542.711 318.652C541.232 317.101 539.995 315.025 538.999 312.426C537.998 309.836 537.527 307.482 537.587 305.362C537.655 303.24 538.22 301.427 539.283 299.923C540.35 298.409 541.876 297.268 543.862 296.5C545.849 295.733 547.742 295.551 549.542 295.957C551.35 296.36 552.993 297.324 554.471 298.849C555.946 300.366 557.18 302.421 558.173 305.013C559.18 307.618 559.654 309.993 559.595 312.139C559.544 314.282 558.992 316.117 557.939 317.643C556.885 319.17 555.362 320.318 553.368 321.089ZM551.759 316.927C553.119 316.401 553.94 315.298 554.223 313.616C554.506 311.934 554.115 309.727 553.049 306.994C552.353 305.193 551.588 303.766 550.754 302.711C549.928 301.654 549.062 300.953 548.156 300.61C547.259 300.265 546.358 300.266 545.453 300.616C544.101 301.139 543.28 302.233 542.992 303.899C542.703 305.566 543.076 307.749 544.111 310.449C544.816 312.273 545.586 313.725 546.422 314.806C547.262 315.876 548.136 316.586 549.044 316.937C549.95 317.28 550.855 317.277 551.759 316.927ZM577.607 306.002L577.123 304.75C576.756 303.8 576.619 302.849 576.713 301.897C576.812 300.935 577.156 300.065 577.743 299.287C578.336 298.498 579.192 297.887 580.313 297.454C581.449 297.015 582.496 296.886 583.454 297.066C584.42 297.244 585.255 297.658 585.96 298.309C586.67 298.95 587.21 299.75 587.58 300.708L588.064 301.96C588.432 302.911 588.57 303.865 588.479 304.825C588.385 305.776 588.04 306.642 587.444 307.423C586.852 308.212 585.996 308.823 584.875 309.256C583.739 309.695 582.69 309.821 581.729 309.632C580.771 309.452 579.937 309.041 579.228 308.401C578.515 307.752 577.975 306.953 577.607 306.002ZM580.497 303.446L580.981 304.698C581.193 305.247 581.525 305.714 581.976 306.099C582.434 306.482 583.015 306.537 583.719 306.265C584.422 305.993 584.809 305.568 584.878 304.99C584.956 304.41 584.886 303.837 584.668 303.273L584.184 302.021C583.965 301.457 583.639 300.979 583.203 300.588C582.768 300.196 582.187 300.141 581.46 300.422C580.764 300.691 580.376 301.121 580.293 301.713C580.211 302.304 580.279 302.882 580.497 303.446ZM560.171 297.125L559.687 295.873C559.317 294.915 559.182 293.958 559.284 293.004C559.383 292.042 559.726 291.172 560.314 290.394C560.909 289.613 561.76 289.009 562.865 288.582C564.009 288.14 565.06 288.009 566.018 288.189C566.976 288.37 567.811 288.784 568.524 289.432C569.233 290.073 569.773 290.873 570.144 291.831L570.628 293.083C570.998 294.041 571.133 294.998 571.031 295.952C570.937 296.904 570.592 297.77 569.996 298.551C569.406 299.321 568.546 299.924 567.418 300.36C566.29 300.796 565.242 300.926 564.277 300.748C563.316 300.56 562.482 300.15 561.775 299.517C561.073 298.873 560.538 298.076 560.171 297.125ZM563.084 294.56L563.568 295.812C563.786 296.376 564.119 296.847 564.567 297.225C565.023 297.599 565.591 297.655 566.271 297.392C566.982 297.118 567.372 296.691 567.442 296.113C567.519 295.533 567.449 294.96 567.231 294.396L566.747 293.144C566.529 292.58 566.202 292.102 565.767 291.711C565.331 291.319 564.746 291.266 564.012 291.55C563.324 291.815 562.944 292.247 562.873 292.843C562.801 293.439 562.872 294.011 563.084 294.56ZM568.674 314.572L575.819 284.52L578.857 283.346L571.712 313.398L568.674 314.572Z" fill="#5E5E5E"/>
<g filter="url(#filter0_d_1267_340)">
<path fill-rule="evenodd" clip-rule="evenodd" d="M104.867 227.706C108.172 227.706 110.852 225.027 110.852 221.721C110.852 221.297 110.808 220.884 110.724 220.485L116.293 219C118.106 228.25 127.937 246.532 152.748 245.661L174.512 239.676V508.464H116.293L51 236.411L57.8641 234.581C58.6808 236.915 60.9024 238.589 63.5149 238.589C66.8204 238.589 69.5001 235.909 69.5001 232.604C69.5001 232.228 69.4655 231.861 69.3995 231.505L78.5172 229.073C79.3147 231.442 81.5536 233.148 84.1908 233.148C87.4963 233.148 90.176 230.468 90.176 227.162C90.176 226.763 90.1368 226.372 90.0622 225.995L99.1712 223.566C99.9488 225.969 102.205 227.706 104.867 227.706Z" fill="url(#paint2_linear_1267_340)"/>
<path d="M68.9535 257.631L126.629 493.229L157.099 502.479V254.367C135.77 258.284 118.83 241.852 113.026 233.146L74.9387 244.029C67.3205 246.205 67.8661 253.278 68.9535 257.631Z" stroke="#B90C08" stroke-width="4"/>
<g filter="url(#filter1_d_1267_340)">
<path fill-rule="evenodd" clip-rule="evenodd" d="M511.676 125.506H492.741C491.733 130.473 487.342 134.211 482.077 134.211C476.813 134.211 472.422 130.473 471.413 125.506H457.918C456.91 130.473 452.518 134.211 447.254 134.211C441.99 134.211 437.599 130.473 436.59 125.506H422.302C416.03 165.58 381.356 196.239 339.521 196.239C297.686 196.239 263.012 165.58 256.741 125.506H241.466C240.674 131.043 235.912 135.299 230.156 135.299C224.4 135.299 219.638 131.043 218.845 125.506H204.467C203.674 131.043 198.913 135.299 193.157 135.299C187.401 135.299 182.639 131.043 181.846 125.506H167.468C166.675 131.043 161.913 135.299 156.157 135.299C150.401 135.299 145.639 131.043 144.847 125.506H132.217V509.645L323 601.654L545.193 496.042V125.506H533.005C531.996 130.473 527.605 134.211 522.34 134.211C517.076 134.211 512.685 130.473 511.676 125.506Z" fill="url(#paint3_linear_1267_340)"/>
</g>
<path d="M261.35 347.357C256.187 347.357 251.546 346.368 247.426 344.391C243.334 342.386 240.066 339.64 237.622 336.152C235.178 332.664 233.874 328.682 233.709 324.206H246.067C246.369 327.831 247.975 330.811 250.886 333.145C253.797 335.479 257.285 336.646 261.35 336.646C264.59 336.646 267.46 335.905 269.959 334.422C272.485 332.911 274.463 330.838 275.891 328.202C277.346 325.565 278.074 322.558 278.074 319.18C278.074 315.748 277.332 312.686 275.85 309.994C274.367 307.303 272.321 305.188 269.712 303.651C267.13 302.113 264.164 301.33 260.814 301.303C258.26 301.303 255.692 301.742 253.111 302.621C250.529 303.5 248.442 304.653 246.85 306.081L235.192 304.351L239.929 261.839H286.313V272.756H250.516L247.838 296.359H248.332C249.98 294.767 252.163 293.435 254.882 292.364C257.628 291.293 260.567 290.757 263.698 290.757C268.833 290.757 273.405 291.979 277.415 294.423C281.452 296.867 284.624 300.204 286.931 304.433C289.265 308.635 290.418 313.468 290.391 318.933C290.418 324.398 289.182 329.273 286.683 333.557C284.212 337.841 280.779 341.219 276.385 343.69C272.019 346.134 267.007 347.357 261.35 347.357ZM334.807 347.604C328.299 347.576 322.738 345.86 318.124 342.455C313.51 339.049 309.982 334.092 307.537 327.584C305.093 321.075 303.871 313.235 303.871 304.062C303.871 294.918 305.093 287.105 307.537 280.624C310.009 274.143 313.552 269.199 318.165 265.794C322.806 262.389 328.354 260.686 334.807 260.686C341.261 260.686 346.795 262.402 351.408 265.835C356.022 269.241 359.551 274.184 361.995 280.665C364.466 287.118 365.702 294.918 365.702 304.062C365.702 313.262 364.48 321.116 362.036 327.625C359.592 334.106 356.063 339.063 351.449 342.496C346.836 345.901 341.288 347.604 334.807 347.604ZM334.807 336.605C340.519 336.605 344.982 333.818 348.195 328.243C351.436 322.668 353.056 314.608 353.056 304.062C353.056 297.06 352.314 291.142 350.831 286.308C349.376 281.447 347.275 277.768 344.529 275.268C341.81 272.742 338.57 271.479 334.807 271.479C329.123 271.479 324.66 274.28 321.419 279.882C318.179 285.484 316.545 293.545 316.518 304.062C316.518 311.093 317.245 317.038 318.701 321.899C320.184 326.732 322.285 330.399 325.003 332.898C327.722 335.369 330.99 336.605 334.807 336.605ZM424.351 330.385V325.936C424.351 322.75 425.01 319.839 426.328 317.203C427.674 314.539 429.624 312.411 432.178 310.818C434.759 309.198 437.876 308.388 441.529 308.388C445.263 308.388 448.394 309.184 450.921 310.777C453.447 312.37 455.356 314.498 456.646 317.162C457.965 319.826 458.624 322.75 458.624 325.936V330.385C458.624 333.571 457.965 336.495 456.646 339.159C455.328 341.795 453.392 343.924 450.838 345.544C448.312 347.137 445.208 347.933 441.529 347.933C437.821 347.933 434.69 347.137 432.136 345.544C429.582 343.924 427.646 341.795 426.328 339.159C425.01 336.495 424.351 333.571 424.351 330.385ZM433.949 325.936V330.385C433.949 332.747 434.512 334.889 435.638 336.811C436.764 338.733 438.727 339.695 441.529 339.695C444.302 339.695 446.238 338.733 447.337 336.811C448.435 334.889 448.984 332.747 448.984 330.385V325.936C448.984 323.574 448.449 321.432 447.378 319.51C446.334 317.588 444.385 316.626 441.529 316.626C438.782 316.626 436.832 317.588 435.679 319.51C434.526 321.432 433.949 323.574 433.949 325.936ZM381.922 282.107V277.658C381.922 274.472 382.581 271.547 383.899 268.884C385.245 266.22 387.195 264.091 389.749 262.499C392.33 260.906 395.447 260.109 399.1 260.109C402.834 260.109 405.965 260.906 408.492 262.499C411.018 264.091 412.927 266.22 414.217 268.884C415.508 271.547 416.154 274.472 416.154 277.658V282.107C416.154 285.292 415.494 288.217 414.176 290.881C412.886 293.517 410.963 295.645 408.409 297.266C405.883 298.858 402.779 299.655 399.1 299.655C395.365 299.655 392.22 298.858 389.666 297.266C387.14 295.645 385.217 293.517 383.899 290.881C382.581 288.217 381.922 285.292 381.922 282.107ZM391.561 277.658V282.107C391.561 284.468 392.11 286.61 393.209 288.533C394.335 290.455 396.298 291.416 399.1 291.416C401.846 291.416 403.768 290.455 404.867 288.533C405.993 286.61 406.556 284.468 406.556 282.107V277.658C406.556 275.296 406.02 273.154 404.949 271.232C403.878 269.309 401.928 268.348 399.1 268.348C396.353 268.348 394.404 269.309 393.25 271.232C392.124 273.154 391.561 275.296 391.561 277.658ZM385.835 346.203L443.835 261.839H453.681L395.681 346.203H385.835ZM326.916 410.203C326.916 416.182 325.822 421.323 323.634 425.625C321.447 429.909 318.448 433.208 314.638 435.523C310.847 437.82 306.536 438.969 301.705 438.969C296.856 438.969 292.526 437.82 288.717 435.523C284.925 433.208 281.935 429.9 279.748 425.598C277.56 421.296 276.467 416.164 276.467 410.203C276.467 404.224 277.56 399.092 279.748 394.809C281.935 390.507 284.925 387.207 288.717 384.91C292.526 382.595 296.856 381.437 301.705 381.437C306.536 381.437 310.847 382.595 314.638 384.91C318.448 387.207 321.447 390.507 323.634 394.809C325.822 399.092 326.916 404.224 326.916 410.203ZM318.549 410.203C318.549 405.646 317.81 401.809 316.334 398.691C314.875 395.556 312.87 393.186 310.318 391.582C307.784 389.96 304.913 389.148 301.705 389.148C298.478 389.148 295.598 389.96 293.064 391.582C290.53 393.186 288.525 395.556 287.049 398.691C285.59 401.809 284.861 405.646 284.861 410.203C284.861 414.76 285.59 418.607 287.049 421.742C288.525 424.859 290.53 427.229 293.064 428.852C295.598 430.456 298.478 431.258 301.705 431.258C304.913 431.258 307.784 430.456 310.318 428.852C312.87 427.229 314.875 424.859 316.334 421.742C317.81 418.607 318.549 414.76 318.549 410.203ZM337.45 438.203V382.203H372.176V389.477H345.899V406.539H369.688V413.785H345.899V438.203H337.45ZM382.567 438.203V382.203H417.294V389.477H391.016V406.539H414.805V413.785H391.016V438.203H382.567Z" fill="white"/>
</g>
<path d="M158.874 153.803H244.299C244.299 153.803 269.872 218.552 338.429 218.552C418.413 218.552 438.545 152.715 438.545 152.715H519.072C524.296 152.715 524.876 159.244 524.514 162.509V539.03L321.501 604.656L151.257 539.03C151.982 413.523 153.433 161.638 153.433 158.156C153.433 154.674 157.061 153.803 158.874 153.803Z" stroke="#0D47A1" stroke-width="3"/>
<circle cx="178.48" cy="421.48" r="70.7338" transform="rotate(-21.1348 178.48 421.48)" fill="url(#paint4_radial_1267_340)"/>
<path d="M151.098 413.159C149.578 412.279 148.384 411.215 147.517 409.967C146.657 408.723 146.163 407.409 146.036 406.023C145.909 404.638 146.198 403.303 146.904 402.017L151.422 404.63C150.979 405.513 150.937 406.413 151.297 407.329C151.657 408.246 152.296 408.97 153.214 409.501C153.946 409.924 154.685 410.136 155.431 410.137C156.188 410.135 156.893 409.934 157.544 409.536C158.207 409.135 158.759 408.554 159.199 407.793C159.647 407.019 159.876 406.242 159.886 405.463C159.904 404.688 159.721 403.97 159.338 403.308C158.955 402.646 158.396 402.098 157.662 401.663C157.016 401.29 156.312 401.06 155.549 400.972C154.793 400.889 154.113 400.98 153.511 401.244L149.798 398.105L157.563 387.09L171.033 394.881L168.83 398.69L159.2 393.12L155.438 398.309L155.567 398.384C156.269 398.063 157.115 397.949 158.105 398.043C159.094 398.136 160.073 398.463 161.041 399.023C162.368 399.791 163.371 400.788 164.05 402.013C164.729 403.239 165.054 404.571 165.026 406.01C165.002 407.441 164.578 408.861 163.753 410.27C162.902 411.759 161.794 412.88 160.43 413.632C159.078 414.381 157.591 414.727 155.968 414.669C154.357 414.608 152.734 414.105 151.098 413.159ZM171.111 424.979C169.265 423.902 167.936 422.525 167.125 420.85C166.32 419.179 166.056 417.278 166.33 415.149C166.611 413.024 167.453 410.759 168.854 408.353C170.244 405.95 171.783 404.108 173.473 402.826C175.169 401.548 176.936 400.852 178.773 400.737C180.622 400.62 182.468 401.094 184.311 402.16C186.154 403.226 187.482 404.588 188.295 406.245C189.114 407.906 189.393 409.79 189.131 411.898C188.873 413.998 188.046 416.248 186.649 418.647C185.251 421.064 183.697 422.922 181.988 424.221C180.287 425.525 178.511 426.245 176.661 426.381C174.812 426.517 172.962 426.05 171.111 424.979ZM173.345 421.117C174.608 421.847 175.983 421.795 177.47 420.961C178.957 420.128 180.432 418.439 181.894 415.896C182.86 414.225 183.493 412.734 183.792 411.423C184.098 410.116 184.101 409.002 183.8 408.082C183.507 407.166 182.941 406.465 182.102 405.98C180.846 405.253 179.479 405.3 178 406.12C176.521 406.939 175.054 408.599 173.599 411.098C172.619 412.79 171.971 414.301 171.652 415.629C171.345 416.954 171.34 418.081 171.636 419.008C171.936 419.929 172.506 420.632 173.345 421.117ZM198.061 434.408L198.733 433.247C199.243 432.364 199.898 431.662 200.699 431.139C201.51 430.613 202.403 430.335 203.378 430.305C204.364 430.272 205.376 430.556 206.416 431.158C207.471 431.768 208.228 432.503 208.688 433.362C209.155 434.226 209.356 435.137 209.29 436.094C209.236 437.049 208.951 437.971 208.437 438.86L207.765 440.022C207.255 440.904 206.597 441.61 205.793 442.141C204.992 442.664 204.101 442.938 203.12 442.964C202.134 442.996 201.121 442.712 200.081 442.11C199.027 441.501 198.272 440.762 197.816 439.895C197.356 439.036 197.153 438.129 197.207 437.174C197.266 436.213 197.55 435.291 198.061 434.408ZM201.863 435.058L201.191 436.219C200.897 436.729 200.741 437.28 200.723 437.873C200.713 438.47 201.034 438.957 201.687 439.335C202.339 439.712 202.913 439.747 203.407 439.439C203.908 439.136 204.31 438.722 204.613 438.199L205.285 437.037C205.588 436.513 205.755 435.959 205.787 435.374C205.819 434.79 205.498 434.302 204.823 433.912C204.178 433.539 203.599 433.506 203.086 433.812C202.574 434.119 202.166 434.534 201.863 435.058ZM194.047 415.259L194.719 414.097C195.234 413.207 195.895 412.503 196.702 411.984C197.514 411.458 198.407 411.18 199.381 411.15C200.363 411.125 201.367 411.409 202.392 412.002C203.454 412.616 204.214 413.353 204.674 414.212C205.134 415.072 205.335 415.983 205.277 416.944C205.222 417.899 204.938 418.821 204.423 419.71L203.751 420.872C203.237 421.761 202.576 422.466 201.768 422.984C200.968 423.507 200.077 423.782 199.095 423.807C198.125 423.83 197.116 423.538 196.069 422.933C195.022 422.327 194.265 421.592 193.798 420.729C193.342 419.862 193.139 418.955 193.189 418.007C193.251 417.057 193.537 416.141 194.047 415.259ZM197.871 415.92L197.199 417.082C196.896 417.606 196.738 418.16 196.725 418.746C196.719 419.336 197.031 419.813 197.662 420.179C198.322 420.56 198.899 420.597 199.393 420.289C199.894 419.986 200.296 419.572 200.599 419.049L201.271 417.887C201.574 417.363 201.741 416.809 201.773 416.224C201.805 415.64 201.48 415.15 200.799 414.756C200.161 414.387 199.587 414.361 199.077 414.679C198.568 414.997 198.166 415.411 197.871 415.92ZM185.784 432.821L213.677 419.549L216.496 421.18L188.602 434.451L185.784 432.821Z" fill="#5E5E5E"/>
<g filter="url(#filter2_d_1267_340)">
<path d="M29 125.449L38.2796 109.135C48.3234 114.79 54.8373 107.866 56.8387 103.697C59.568 97.1715 55.2012 89.3771 51.926 86.2956L64.4808 64C72.1228 64.5438 104.874 93.3649 130.53 119.467C151.054 140.349 184.569 142.669 198.762 141.219L184.569 164.058C180.385 162.427 171.032 161.122 167.102 168.952C163.172 176.783 168.74 184.179 172.015 186.898L161.643 201.58C130.639 206.365 102.509 187.985 92.3195 178.197C64.8083 144.699 38.6435 129.074 29 125.449Z" fill="url(#paint5_linear_1267_340)"/>
</g>
<path d="M40.5143 306L24 320.887C24 347.795 43.0831 360.771 52.6247 363.896L69.139 355.073C49.3219 351.545 41.7987 320.887 40.5143 306Z" fill="#0D48A3"/>
<path d="M40.4571 113.872L33.9062 123.623C58.4718 134.457 85.039 161.363 95.0471 175.087C110.878 192.964 147.272 199.103 160.009 198.381L167.652 187.005C167.652 187.005 157.42 177.022 163.831 166.419C170.381 155.585 184.029 159.918 184.029 159.918L193.855 144.208C187.85 145.834 148 143.125 133.806 127.415C119.613 111.705 79.216 78.1176 66.1144 68.9082L56.8341 85.7018C56.8341 85.7018 66.6603 97.6198 59.0177 107.371C51.3105 117.204 40.4571 113.872 40.4571 113.872Z" stroke="#E31A16"/>
<path d="M566.633 162.587C580.792 154.451 585.438 146.351 585.991 143.318L597.053 147.065C597.053 155.629 583.041 163.836 576.035 166.869L566.633 162.587Z" fill="#D9D9D9"/>
<g opacity="0.8">
<path d="M120.868 211.475L123.762 221.515C123.831 221.755 123.979 221.974 124.188 222.148C124.397 222.322 124.66 222.445 124.948 222.503L137.007 224.912L124.948 227.322C124.632 227.383 124.347 227.523 124.131 227.724C123.915 227.924 123.779 228.176 123.742 228.443L120.747 249.813L117.733 228.443C117.695 228.176 117.559 227.924 117.343 227.724C117.127 227.523 116.842 227.383 116.527 227.322L104.468 224.912L116.527 222.503C116.814 222.445 117.077 222.322 117.286 222.148C117.496 221.974 117.643 221.755 117.712 221.515L120.868 211.475Z" fill="#F8B01D"/>
<path d="M4.24754 519.438L7.14168 529.562C7.21012 529.8 7.3576 530.017 7.56728 530.189C7.77696 530.361 8.04039 530.48 8.32748 530.533L20.3864 532.959L8.50835 535.352C8.19293 535.412 7.9077 535.553 7.69179 535.753C7.47588 535.954 7.33988 536.206 7.30247 536.473L4.30784 557.843L1.29312 536.473C1.25571 536.206 1.11971 535.954 0.903797 535.753C0.687886 535.553 0.402635 535.412 0.0872173 535.352L-11.9717 532.942L0.0872173 530.516C0.374299 530.463 0.63772 530.344 0.8474 530.172C1.05708 530.001 1.20457 529.783 1.27302 529.545L4.24754 519.438Z" fill="#076EC4"/>
<path d="M390.623 59.125L393.538 69.2661C393.604 69.5021 393.749 69.7179 393.955 69.8893C394.161 70.0608 394.42 70.181 394.703 70.2367L406.883 72.6632L394.824 75.0563C394.508 75.1221 394.224 75.2661 394.009 75.4692C393.793 75.6724 393.657 75.9252 393.618 76.1942L390.623 97.5642L387.609 76.1942C387.569 75.9252 387.433 75.6724 387.218 75.4692C387.003 75.2661 386.718 75.1221 386.403 75.0563L374.344 72.6632L386.503 70.2367C386.789 70.182 387.052 70.0624 387.261 69.891C387.47 69.7197 387.618 69.5034 387.689 69.2661L390.623 59.125Z" fill="#D2100D"/>
<path d="M134.914 363.824L137.828 373.965C137.899 374.203 138.047 374.419 138.256 374.59C138.466 374.762 138.728 374.881 139.014 374.936L151.173 377.362L139.114 379.756C138.799 379.821 138.514 379.965 138.299 380.168C138.084 380.372 137.948 380.624 137.908 380.893L134.894 402.263L131.879 380.893C131.846 380.623 131.711 380.368 131.495 380.164C131.279 379.96 130.992 379.817 130.673 379.756L118.614 377.362L130.794 374.936C131.077 374.88 131.336 374.76 131.542 374.589C131.748 374.417 131.893 374.201 131.959 373.965L134.914 363.824Z" fill="#D2100D"/>
<path d="M59.5686 403.32L61.4578 409.93C61.5091 410.085 61.6087 410.225 61.7464 410.337C61.8842 410.448 62.0551 410.528 62.2417 410.566L70.1603 412.139L62.3221 413.712C62.1147 413.751 61.9272 413.842 61.7864 413.975C61.6456 414.107 61.5587 414.273 61.5382 414.449L59.5284 421.343L57.5186 414.449C57.4981 414.273 57.4112 414.107 57.2704 413.975C57.1296 413.842 56.9421 413.751 56.7348 413.712L48.8965 412.139L56.8151 410.566C57.0017 410.528 57.1727 410.448 57.3104 410.337C57.4481 410.225 57.5477 410.085 57.599 409.93L59.5686 403.32Z" fill="#F8B01D"/>
<path d="M610.625 263.723L612.515 270.333C612.56 270.487 612.656 270.627 612.79 270.739C612.925 270.851 613.094 270.931 613.278 270.969L621.318 272.558L613.479 274.115C613.273 274.155 613.087 274.248 612.947 274.379C612.807 274.511 612.719 274.676 612.695 274.851L610.686 281.746L608.676 274.851C608.652 274.676 608.565 274.511 608.424 274.379C608.284 274.248 608.098 274.155 607.892 274.115L600.054 272.558L607.972 270.969C608.16 270.936 608.333 270.859 608.468 270.746C608.604 270.633 608.697 270.489 608.736 270.333L610.625 263.723Z" fill="#F8B01D"/>
<path d="M549.376 293.09L551.266 299.7C551.309 299.855 551.404 299.996 551.539 300.109C551.674 300.221 551.844 300.3 552.029 300.336L559.968 301.926L552.11 303.482C551.905 303.525 551.721 303.618 551.581 303.749C551.441 303.88 551.352 304.044 551.326 304.218L549.316 311.13L547.306 304.218C547.28 304.044 547.191 303.88 547.051 303.749C546.911 303.618 546.727 303.525 546.522 303.482L538.664 301.926L546.603 300.336C546.791 300.303 546.963 300.226 547.099 300.113C547.234 300 547.327 299.856 547.367 299.7L549.376 293.09Z" fill="#076EC4"/>
<path d="M560.218 446.527L562.107 453.138C562.16 453.291 562.261 453.43 562.398 453.542C562.535 453.653 562.705 453.733 562.891 453.773L570.81 455.346L562.971 456.903C562.763 456.944 562.574 457.039 562.434 457.174C562.293 457.309 562.207 457.478 562.188 457.656L560.178 464.55L558.168 457.656C558.149 457.478 558.062 457.309 557.922 457.174C557.781 457.039 557.593 456.944 557.384 456.903L549.546 455.346L557.465 453.773C557.65 453.733 557.82 453.653 557.958 453.542C558.095 453.43 558.195 453.291 558.248 453.138L560.218 446.527Z" fill="#076EC4"/>
<path d="M22.6922 207L24.6016 213.694C24.6406 213.85 24.7337 213.994 24.8694 214.107C25.0051 214.22 25.1774 214.297 25.3653 214.33L33.2839 215.919L25.4457 217.476C25.2397 217.516 25.0538 217.609 24.9135 217.74C24.7731 217.872 24.6853 218.037 24.6618 218.212L22.652 225.107L20.6422 218.212C20.611 218.039 20.5203 217.878 20.3812 217.747C20.2421 217.617 20.0605 217.522 19.8584 217.476L12 215.919L20.0393 214.33C20.225 214.293 20.395 214.215 20.5299 214.102C20.6648 213.99 20.7594 213.848 20.803 213.694L22.6922 207Z" fill="#D2100D"/>
<path d="M443.12 98.25L445.029 104.86C445.075 105.014 445.17 105.155 445.305 105.267C445.439 105.379 445.608 105.458 445.793 105.496L453.732 107.069L445.873 108.642C445.666 108.68 445.479 108.772 445.338 108.904C445.197 109.037 445.11 109.203 445.09 109.378L443.08 116.273L441.07 109.378C441.047 109.203 440.959 109.039 440.818 108.907C440.678 108.775 440.492 108.683 440.286 108.642L432.428 107.069L440.367 105.496C440.549 105.455 440.716 105.374 440.85 105.263C440.984 105.151 441.081 105.012 441.13 104.86L443.12 98.25Z" fill="#0A75CD"/>
<path d="M19.7336 145.643L21.643 152.253C21.682 152.409 21.7751 152.553 21.9108 152.666C22.0465 152.779 22.2188 152.856 22.4067 152.889L30.3254 154.478L22.4871 156.035C22.2812 156.075 22.0952 156.168 21.9549 156.299C21.8146 156.431 21.7267 156.596 21.7033 156.771L19.6935 163.682L17.6836 156.771C17.6602 156.596 17.5723 156.431 17.432 156.299C17.2916 156.168 17.1057 156.075 16.8998 156.035L9.06152 154.478L17.1008 152.889C17.2856 152.851 17.4544 152.771 17.589 152.659C17.7235 152.547 17.8188 152.407 17.8645 152.253L19.7336 145.643Z" fill="#F8B01D"/>
<path d="M664.585 437.822L666.595 444.432C666.641 444.586 666.736 444.727 666.871 444.839C667.005 444.951 667.174 445.03 667.359 445.068L675.277 446.641L667.439 448.214C667.232 448.252 667.044 448.344 666.904 448.476C666.763 448.609 666.676 448.775 666.655 448.951L664.646 455.845L662.636 448.951C662.615 448.775 662.528 448.609 662.388 448.476C662.247 448.344 662.059 448.252 661.852 448.214L654.014 446.641L661.952 445.068C662.134 445.024 662.298 444.943 662.432 444.832C662.565 444.721 662.663 444.583 662.716 444.432L664.585 437.822Z" fill="#F8B01D"/>
<path d="M276.127 119.354L278.137 126.047C278.18 126.202 278.275 126.343 278.41 126.456C278.545 126.568 278.715 126.647 278.9 126.683L286.839 128.256L278.981 129.829C278.774 129.867 278.586 129.959 278.445 130.091C278.304 130.224 278.217 130.39 278.197 130.566L276.187 137.46L274.177 130.566C274.154 130.391 274.066 130.226 273.926 130.094C273.785 129.962 273.599 129.87 273.394 129.829L265.535 128.256L273.474 126.683C273.659 126.645 273.827 126.566 273.962 126.454C274.097 126.342 274.192 126.201 274.238 126.047L276.127 119.354Z" fill="#F8B01D"/>
<path d="M36.6118 363.998L38.5011 370.608C38.5447 370.763 38.6392 370.904 38.7742 371.017C38.9091 371.129 39.079 371.208 39.2648 371.244L47.304 372.817L39.4457 374.39C39.241 374.433 39.0567 374.526 38.9168 374.657C38.7769 374.789 38.688 374.952 38.6618 375.127L36.652 382.021L34.6422 375.127C34.6161 374.952 34.5272 374.789 34.3873 374.657C34.2474 374.526 34.063 374.433 33.8584 374.39L26 372.817L33.9388 371.244C34.1266 371.212 34.299 371.134 34.4347 371.021C34.5703 370.908 34.6634 370.765 34.7025 370.608L36.6118 363.998Z" fill="#076EC4"/>
</g>
</g>
<g filter="url(#filter3_d_1267_340)">
<path fill-rule="evenodd" clip-rule="evenodd" d="M603.957 333.355C572.616 342.931 551.723 361.648 545.193 369.81L554.034 378.886C556.302 375.698 560.027 373.618 564.238 373.618C571.149 373.618 576.752 379.221 576.752 386.133C576.752 390.461 574.554 394.277 571.213 396.524L586.001 411.706C586.727 406.084 596.122 392.336 627.897 382.324C659.673 372.313 674.872 342.605 678.499 329.002L669.016 319.397C666.632 321.959 663.231 323.561 659.455 323.561C652.243 323.561 646.397 317.715 646.397 310.503C646.397 306.667 648.05 303.218 650.683 300.829L636.059 286.018C629.53 314.311 611.937 329.365 603.957 333.355Z" fill="url(#paint6_linear_1267_340)"/>
</g>
<path d="M646.218 301.187L636.982 292.473C630.462 314.258 622.856 331.142 594.606 340.401C572.005 347.808 554.765 362.731 548.97 369.266L554.403 375.257C554.403 375.257 565.268 366.543 575.047 376.346C584.827 386.15 574.504 396.498 574.504 396.498L585.37 406.301C590.585 391.487 621.589 379.796 636.439 375.802C660.343 363.602 672.476 340.219 675.555 330.052L668.492 322.972C668.492 322.972 656.54 330.052 647.848 320.249C639.155 310.446 646.218 301.187 646.218 301.187Z" stroke="#FEC144"/>
<defs>
<filter id="filter0_d_1267_340" x="11" y="97.5059" width="574.193" height="556.148" filterUnits="userSpaceOnUse" color-interpolation-filters="sRGB">
<feFlood flood-opacity="0" result="BackgroundImageFix"/>
<feColorMatrix in="SourceAlpha" type="matrix" values="0 0 0 0 0 0 0 0 0 0 0 0 0 0 0 0 0 0 127 0" result="hardAlpha"/>
<feOffset dy="12"/>
<feGaussianBlur stdDeviation="20"/>
<feComposite in2="hardAlpha" operator="out"/>
<feColorMatrix type="matrix" values="0 0 0 0 0 0 0 0 0 0 0 0 0 0 0 0 0 0 0.47 0"/>
<feBlend mode="normal" in2="BackgroundImageFix" result="effect1_dropShadow_1267_340"/>
<feBlend mode="normal" in="SourceGraphic" in2="effect1_dropShadow_1267_340" result="shape"/>
</filter>
<filter id="filter1_d_1267_340" x="92.2168" y="89.5059" width="492.977" height="556.148" filterUnits="userSpaceOnUse" color-interpolation-filters="sRGB">
<feFlood flood-opacity="0" result="BackgroundImageFix"/>
<feColorMatrix in="SourceAlpha" type="matrix" values="0 0 0 0 0 0 0 0 0 0 0 0 0 0 0 0 0 0 127 0" result="hardAlpha"/>
<feOffset dy="4"/>
<feGaussianBlur stdDeviation="20"/>
<feComposite in2="hardAlpha" operator="out"/>
<feColorMatrix type="matrix" values="0 0 0 0 0 0 0 0 0 0 0 0 0 0 0 0 0 0 0.48 0"/>
<feBlend mode="normal" in2="BackgroundImageFix" result="effect1_dropShadow_1267_340"/>
<feBlend mode="normal" in="SourceGraphic" in2="effect1_dropShadow_1267_340" result="shape"/>
</filter>
<filter id="filter2_d_1267_340" x="17" y="56" width="193.762" height="162.361" filterUnits="userSpaceOnUse" color-interpolation-filters="sRGB">
<feFlood flood-opacity="0" result="BackgroundImageFix"/>
<feColorMatrix in="SourceAlpha" type="matrix" values="0 0 0 0 0 0 0 0 0 0 0 0 0 0 0 0 0 0 127 0" result="hardAlpha"/>
<feOffset dy="4"/>
<feGaussianBlur stdDeviation="6"/>
<feComposite in2="hardAlpha" operator="out"/>
<feColorMatrix type="matrix" values="0 0 0 0 0 0 0 0 0 0 0 0 0 0 0 0 0 0 0.26 0"/>
<feBlend mode="normal" in2="BackgroundImageFix" result="effect1_dropShadow_1267_340"/>
<feBlend mode="normal" in="SourceGraphic" in2="effect1_dropShadow_1267_340" result="shape"/>
</filter>
<filter id="filter3_d_1267_340" x="541.193" y="286.018" width="141.306" height="133.689" filterUnits="userSpaceOnUse" color-interpolation-filters="sRGB">
<feFlood flood-opacity="0" result="BackgroundImageFix"/>
<feColorMatrix in="SourceAlpha" type="matrix" values="0 0 0 0 0 0 0 0 0 0 0 0 0 0 0 0 0 0 127 0" result="hardAlpha"/>
<feOffset dy="4"/>
<feGaussianBlur stdDeviation="2"/>
<feComposite in2="hardAlpha" operator="out"/>
<feColorMatrix type="matrix" values="0 0 0 0 0 0 0 0 0 0 0 0 0 0 0 0 0 0 0.18 0"/>
<feBlend mode="normal" in2="BackgroundImageFix" result="effect1_dropShadow_1267_340"/>
<feBlend mode="normal" in="SourceGraphic" in2="effect1_dropShadow_1267_340" result="shape"/>
</filter>
<linearGradient id="paint0_linear_1267_340" x1="366.724" y1="186.447" x2="627.35" y2="215.829" gradientUnits="userSpaceOnUse">
<stop stop-color="#A10301"/>
<stop offset="1" stop-color="#E0130F"/>
</linearGradient>
<radialGradient id="paint1_radial_1267_340" cx="0" cy="0" r="1" gradientUnits="userSpaceOnUse" gradientTransform="translate(549.19 306.058) rotate(-56.7805) scale(73.4946)">
<stop stop-color="#F09D53"/>
<stop offset="0.643939" stop-color="#F6B863"/>
<stop offset="0.689228" stop-color="#E6A83B"/>
<stop offset="0.742898" stop-color="#EEA931"/>
<stop offset="0.784564" stop-color="#F5AA2A"/>
<stop offset="0.878314" stop-color="#DEA730"/>
<stop offset="1" stop-color="#FFC89C"/>
</radialGradient>
<linearGradient id="paint2_linear_1267_340" x1="112.756" y1="219" x2="112.756" y2="508.464" gradientUnits="userSpaceOnUse">
<stop stop-color="#FCC02F"/>
<stop offset="1" stop-color="#F19702"/>
</linearGradient>
<linearGradient id="paint3_linear_1267_340" x1="502.209" y1="77.147" x2="193.532" y2="476.694" gradientUnits="userSpaceOnUse">
<stop stop-color="#0F80DE"/>
<stop offset="1" stop-color="#005EAC"/>
</linearGradient>
<radialGradient id="paint4_radial_1267_340" cx="0" cy="0" r="1" gradientUnits="userSpaceOnUse" gradientTransform="translate(178.48 421.48) rotate(-56.7805) scale(73.4946)">
<stop stop-color="#F09D53"/>
<stop offset="0.643939" stop-color="#F6B863"/>
<stop offset="0.689228" stop-color="#E6A83B"/>
<stop offset="0.742898" stop-color="#EEA931"/>
<stop offset="0.784564" stop-color="#F5AA2A"/>
<stop offset="0.878314" stop-color="#DEA730"/>
<stop offset="1" stop-color="#FFC89C"/>
</radialGradient>
<linearGradient id="paint5_linear_1267_340" x1="113.881" y1="64" x2="113.881" y2="202.361" gradientUnits="userSpaceOnUse">
<stop stop-color="#DC120F"/>
<stop offset="1" stop-color="#C80D0A"/>
</linearGradient>
<linearGradient id="paint6_linear_1267_340" x1="645.853" y1="280.577" x2="611.846" y2="411.706" gradientUnits="userSpaceOnUse">
<stop stop-color="#FFCD3C"/>
<stop offset="1" stop-color="#F19702"/>
</linearGradient>
</defs>
</svg>
